<?xml version="1.0" encoding="UTF-8"?>
<svg width="1200pt" height="1200pt" version="1.1" viewBox="0 0 1200 1200" xmlns="http://www.w3.org/2000/svg">
 <g>
  <path d="m900.54 194.53h-8.25c-6.4727 0-11.719-5.2461-11.719-11.719s5.2461-11.719 11.719-11.719h8.25c6.4727 0 11.719 5.2461 11.719 11.719s-5.2461 11.719-11.719 11.719z"/>
  <path d="m1031.6 194.53h-8.2734c-6.4727 0-11.719-5.2461-11.719-11.719s5.2461-11.719 11.719-11.719h8.2734c6.4727 0 11.719 5.2461 11.719 11.719s-5.2461 11.719-11.719 11.719z"/>
  <path d="m574.55 791.53c-6.4727 0.23828-11.914-4.8125-12.152-11.285s4.8125-11.914 11.285-12.152c40.664-3.1406 69.844-20.344 86.719-51.188 7.6992-14.102 12.301-29.684 13.5-45.703 0.17578-6.3438 5.3711-11.395 11.719-11.391h0.35156c6.4648 0.19141 11.551 5.582 11.367 12.047-1.332 19.715-6.9297 38.91-16.406 56.25-14.367 26.273-44.344 58.594-105.47 63.281z"/>
  <path d="m677.34 669.42c-3.6602 0.039063-7.1289-1.6328-9.375-4.5234-18.094-23.25-41.18-63.797-32.953-147.12 0.64844-6.4727 6.418-11.195 12.891-10.547s11.195 6.418 10.547 12.891c-7.4062 75 12.516 110.34 28.125 130.43 2.7461 3.5312 3.2422 8.3164 1.2812 12.336s-6.043 6.5742-10.516 6.5781z"/>
  <path d="m394.5 856.01c-21.094 0-57.023-2.7656-81.773-19.266l-0.46875-0.32813c-1.7812-1.3125-43.734-32.812-77.742-92.344-31.406-55.008-61.477-144.94-26.414-261.8 27.82-92.742 81.281-158.55 158.88-195.63 107.16-51.164 232.03-33.773 306.38-3.3516 29.391 12 56.016 12.352 79.125 1.0078 49.219-24.117 68.719-92.531 68.906-93.211 0-0.21094 0.11719-0.39844 0.16406-0.58594 6.5781-17.086 16.59-32.641 29.414-45.703 19.664-20.367 55.078-44.344 112.5-42.773 48.188 1.2891 82.688 13.898 105.47 38.531 26.367 28.523 37.055 73.102 33.609 140.3-1.3125 25.5-8.0625 116.13-40.008 211.36-33.258 99.164-81.539 167.72-143.48 203.74-2.6953 1.7812-6.0039 2.3711-9.1445 1.6289-3.1445-0.73828-5.8398-2.7422-7.457-5.5352-1.6172-2.7969-2.0117-6.1328-1.0859-9.2266 0.92578-3.0938 3.082-5.668 5.9688-7.1172 123.33-71.742 166.05-282.7 171.87-396.09 3.0938-60.469-5.6016-99.633-27.398-123.19-18.258-19.758-47.344-29.906-88.875-31.031-90.586-2.3438-117.45 68.109-118.95 72.281-1.8984 6.6562-23.977 79.688-81.07 107.62-29.391 14.414-62.461 14.297-98.297-0.375-75.469-30.867-193.62-41.977-287.41 2.8359-71.391 34.078-120.7 95.039-146.53 181.2-26.133 87.07-18.117 168.75 23.836 242.6 30.305 53.414 68.414 83.367 71.625 85.828 24.539 16.148 68.695 15.984 83.695 14.555h164.91c3.0703-9.9375 4.4297-21.094-0.96094-28.594-8.1797-11.25-29.555-12.352-37.102-11.836h-97.969c-6.4727 0-11.719-5.2461-11.719-11.719 0-6.4727 5.2461-11.719 11.719-11.719h96.609c5.8594-0.35156 40.477-1.5 57.211 21.352 10.594 14.461 11.016 34.172 1.2422 58.594-1.75 4.4805-6.0625 7.4375-10.875 7.4531h-171.54c-1.9922 0-8.2266 0.53906-16.852 0.53906z"/>
  <path d="m693.91 855.47h-172.08c-6.4727 0-11.719-5.2461-11.719-11.719s5.2461-11.719 11.719-11.719h163.8c3.0469-9.9609 4.4297-21.094-1.0078-28.641-8.2266-11.25-30.023-12.305-37.031-11.719h-98.016c-6.4727 0-11.719-5.2461-11.719-11.719s5.2461-11.719 11.719-11.719h96.797c6.9648-0.29688 13.941 0.14062 20.812 1.3125 16.266 2.8359 28.828 9.7734 36.352 20.039 10.594 14.461 11.016 34.172 1.2422 58.594-1.8047 4.418-6.1055 7.3008-10.875 7.2891z"/>
  <path d="m960.35 258.66c-18.047 0-31.43-5.0391-39.844-15.023-6.6328-8.2305-9.4844-18.879-7.8516-29.32 0-0.23438 0-0.49219 0.14062-0.75 3.375-13.43 14.062-22.875 30.258-26.602 6.6953-1.4961 13.562-2.0664 20.414-1.6875 13.875 0.11719 37.992 6.1172 44.344 28.008 0.10938 0.37109 0.19531 0.74609 0.25781 1.125 1.6016 10.473-1.3047 21.129-7.9922 29.344-8.3203 9.8672-21.68 14.906-39.727 14.906zm-24.562-39.844c-0.32812 3.6055 0.72656 7.1992 2.9531 10.055 3.6328 4.2188 11.109 6.4453 21.609 6.4453s17.977-2.3438 21.609-6.4453c2.1953-2.7969 3.2539-6.3242 2.9531-9.8672-3.6328-9.75-21.656-10.195-21.844-10.195h-0.91406c-4.7227-0.23438-9.4531 0.18359-14.062 1.2422-9.7969 2.2031-11.742 6.6328-12.305 8.6719z"/>
  <path d="m923.95 799.22c-7.2891-0.03125-14.574-0.44531-21.82-1.2422-21.734-2.5391-43.164-7.2539-63.961-14.062-77.836-25.781-135.26-66.117-170.7-119.7-1.7148-2.5938-2.332-5.7578-1.7109-8.8047 0.62109-3.0469 2.4219-5.7227 5.0156-7.4375 5.3984-3.5742 12.668-2.0938 16.242 3.3047 32.484 49.102 85.805 86.25 158.53 110.39 28.992 9.6094 90.703 23.133 116.77 5.4609 7.4297-5.0391 11.18-12.234 11.719-22.594 0.70313-12.047-9.4922-25.008-22.242-28.266-52.547-13.453-91.875-49.078-113.74-103.12-9.9844-24.648-15.781-50.789-17.156-77.344-0.13672-6.4727 5-11.828 11.473-11.965 6.4727-0.13672 11.828 5 11.965 11.473 1.3828 23.938 6.6875 47.484 15.703 69.703 19.289 47.086 52.125 76.852 97.57 88.477 23.672 6.0703 41.18 29.062 39.844 52.336-1.0078 17.484-8.625 31.547-22.031 40.641-12.352 8.4375-29.625 12.75-51.469 12.75z"/>
  <path d="m832.69 205.95c-1.0625 0-2.1211-0.14844-3.1406-0.44531-3-0.82031-29.531-8.7656-37.195-30.469-3.0469-8.6484-4.0547-22.664 8.6016-40.359 9.9844-14.062 22.078-21.469 35.906-22.195 23.977-1.1953 42.188 18.75 44.297 21.094 4.0547 4.8633 3.5117 12.07-1.2305 16.273-4.7383 4.1992-11.957 3.875-16.301-0.73438-3.4922-3.8672-14.859-13.758-25.617-13.125-6.3984 0.35156-12.281 4.4297-18 12.398-5.4375 7.6172-7.3125 14.062-5.5547 18.938 3.1641 8.9766 17.648 14.672 21.375 15.703 5.6562 1.5625 9.2891 7.0664 8.4961 12.883-0.79297 5.8125-5.7656 10.145-11.637 10.133z"/>
  <path d="m1088 211.48c-5.9297-0.015624-10.91-4.4609-11.605-10.348-0.69141-5.8906 3.125-11.367 8.8867-12.762 5.6953-1.3828 22.945-7.7578 27.047-18.328 2.3438-5.7891 0.375-13.195-5.5547-22.031-5.2266-7.9219-10.875-12.07-16.945-12.445-10.781-0.84375-22.758 9.375-26.438 13.523-4.3633 4.6562-11.652 4.9688-16.395 0.69531-4.7422-4.2695-5.1953-11.551-1.0195-16.375 2.1094-2.3438 21.305-22.922 45.422-21.234 9.375 0.65625 23.109 5.1328 34.922 22.781 10.477 15.609 13.125 30.305 7.875 43.664-9.375 23.812-39.844 31.734-43.406 32.555-0.91406 0.21094-1.8516 0.3125-2.7891 0.30469z"/>
  <path d="m1043.6 347.48c-5.8633 0-10.828-4.3359-11.613-10.145-0.78906-5.8125 2.8438-11.312 8.4961-12.871 40.43-11.227 39.234-76.547 39.211-77.203-0.085937-3.1094 1.0625-6.125 3.1992-8.3828 2.1367-2.2578 5.082-3.5781 8.1914-3.6641 6.4727-0.17969 11.867 4.918 12.047 11.391 0.074219 14.414-1.8086 28.773-5.6016 42.68-8.625 30.961-26.18 50.93-50.789 57.75-1.0195 0.29688-2.0781 0.44531-3.1406 0.44531z"/>
  <path d="m871.55 355.8c-1.0547 0-2.1016-0.14453-3.1172-0.42188-21.727-6-37.875-18.562-47.977-37.359-24.938-46.336-3.2109-114.49-2.3438-117.38 0.93359-2.9883 3.0273-5.4766 5.8086-6.9141 2.7812-1.4336 6.0195-1.6992 8.9961-0.73047 2.9766 0.96484 5.4453 3.0859 6.8477 5.8828 1.4062 2.7969 1.6367 6.0391 0.63672 9.0039-0.1875 0.60938-19.547 61.617 0.65625 99.07 7.0312 13.102 18.023 21.539 33.539 25.781 5.6523 1.5586 9.2852 7.0586 8.4961 12.871-0.78516 5.8086-5.75 10.145-11.613 10.145z"/>
  <path d="m462.16 791.53c-6.1641 0.015625-11.289-4.75-11.719-10.898-0.28125-4.2422-6.75-104.6 33.867-165.52 3.5938-5.4102 10.891-6.8867 16.301-3.293 5.4102 3.5938 6.8867 10.891 3.293 16.301-36.211 54.328-30.047 150-29.977 150.89 0.44141 6.4531-4.4258 12.043-10.875 12.492z"/>
  <path d="m157.03 916.41c-32.203 0-56.531-4.6875-72.281-13.664-13.828-7.9688-16.898-16.992-17.508-19.57l-0.14063-0.70312c-2.2734-12.789-3.5508-25.734-3.8203-38.719 0-93.609 36.375-160.64 66.914-200.37 33.141-43.172 66.164-64.055 67.57-64.922 5.4883-3.4297 12.719-1.7617 16.148 3.7266 3.4297 5.4883 1.7617 12.719-3.7266 16.148-0.32812 0.21094-31.406 19.992-62.016 60.094-40.781 53.344-61.453 115.71-61.453 185.32 0.26953 11.203 1.3516 22.375 3.2344 33.422 1.7109 2.3906 13.453 15.797 67.078 15.797 49.383 0 62.062-11.719 64.57-14.766-0.42187-12.438 0.55859-24.883 2.9297-37.102 12.68-60.211 51.562-65.156 53.25-65.344l2.5547 23.297h0.25781c-0.98438 0.14062-24.141 4.2188-33.164 47.039-2.1016 11.152-2.8867 22.508-2.3438 33.844 0.082031 0.77734 0.082031 1.5664 0 2.3438-1.3359 7.9922-11.297 34.125-88.055 34.125z"/>
  <path d="m960.35 294.75c-6.4727 0-11.719-5.2461-11.719-11.719v-36.094c0-6.4727 5.2461-11.719 11.719-11.719 6.4727 0 11.719 5.2461 11.719 11.719v36.094c0 3.1094-1.2344 6.0898-3.4336 8.2852-2.1953 2.1992-5.1758 3.4336-8.2852 3.4336z"/>
  <path d="m1146.1 356.25c-4.8828 0-9.25-3.0234-10.969-7.5938-10.547-28.125-32.227-48.68-64.453-61.172-16.359-6.3281-33.621-10.012-51.141-10.922-6.4727 0-11.719-5.2461-11.719-11.719s5.2461-11.719 11.719-11.719c20.414 0.92578 40.543 5.1523 59.602 12.516 38.18 14.766 65.133 40.641 77.93 74.766 1.3555 3.5977 0.85547 7.6328-1.332 10.797-2.1914 3.1602-5.793 5.0469-9.6367 5.0469z"/>
  <path d="m778.12 356.25c-4.207 0.003906-8.0938-2.25-10.18-5.9023-2.0898-3.6523-2.0586-8.1445 0.078126-11.77 49.711-84.492 128.65-85.453 131.98-85.453 6.4727 0 11.719 5.2461 11.719 11.719s-5.2461 11.719-11.719 11.719c-2.8359 0-69.164 1.3828-111.82 73.922-2.1016 3.5625-5.9219 5.75-10.055 5.7656z"/>
  <path d="m986.72 855.47c-12.375 0.20703-24.445-3.8359-34.203-11.453-9.7539-7.6172-16.602-18.352-19.398-30.406l-5.8125-23.438c-1.3984-6.2109 2.418-12.402 8.5977-13.941 6.1758-1.543 12.453 2.1289 14.137 8.2695l5.8594 23.438c0.007812 0.125 0.007812 0.25 0 0.375 1.6016 6.9062 5.5469 13.047 11.168 17.371 5.6211 4.3242 12.566 6.5703 19.652 6.3477 7.9453 0 13.922-2.1328 18.211-6.5625 7.6172-7.7812 11.18-23.438 10.617-46.453-1.2656-52.125-13.055-109.1-34.078-164.79-2.0273-5.9805 1.0508-12.496 6.9609-14.727 5.9062-2.2305 12.523 0.625 14.953 6.4531 21.961 58.125 34.266 117.77 35.602 172.48 0.72656 30-4.9219 50.742-17.273 63.422-8.8125 8.9297-20.602 13.617-34.992 13.617z"/>
  <path d="m794.53 1043h-494.53c-16.617 0-29.508-5.2031-38.273-15.492-13.336-15.586-11.578-36.633-10.922-41.695 1.4531-64.594 27.609-103.64 49.219-125.06 23.883-23.438 47.695-31.43 48.703-31.758 6.1289-1.918 12.66 1.4531 14.645 7.5625 1.9844 6.1094-1.3164 12.676-7.4023 14.727-3.4219 1.1484-79.688 27.891-81.867 135.7 0 0.53906 0 1.0547-0.14062 1.5938-0.60938 4.1016-0.79688 16.406 5.5078 23.789 4.1484 4.6875 11.016 7.1953 20.414 7.1953h494.65c6.4727 0 11.719 5.2461 11.719 11.719s-5.2461 11.719-11.719 11.719z"/>
  <path d="m682.03 798.05c-5.8633 0-10.828-4.3359-11.613-10.145-0.78906-5.8125 2.8438-11.312 8.4961-12.871 3.2344-0.89062 80.625-21.68 189.84-6.8203 6.4141 0.875 10.906 6.7812 10.031 13.195s-6.7812 10.906-13.195 10.031c-104.06-14.18-179.62 5.9766-180.47 6.1875-1.0078 0.27734-2.0469 0.41797-3.0938 0.42188z"/>
  <path d="m1126.2 1043h-38.672c-6.4727 0-11.719-5.2461-11.719-11.719s5.2461-11.719 11.719-11.719h38.672c7.1953 0 12.586-1.9688 16.406-6.0469 7.2891-7.6172 8.3438-21.492 8.1562-26.203-0.046875-0.59375-0.046875-1.1875 0-1.7812 5.6719-54.562-4.6875-97.664-30.797-128.06-37.008-43.102-93.492-46.289-94.055-46.312-6.4727-0.3125-11.469-5.8086-11.156-12.281s5.8086-11.469 12.281-11.156c2.7188 0.14062 67.195 3.7734 110.72 54.445 30.352 35.344 42.586 84.094 36.398 144.96 0.14062 5.4609-0.28125 27.422-14.531 42.445-8.2031 8.7422-19.805 13.43-33.422 13.43z"/>
  <path d="m1033.6 1099.2h-189.84c-22.289 0-39.047-6.7031-49.781-19.898-16.102-19.805-11.719-46.711-10.969-50.133 7.5-45.656 37.031-78.469 85.406-94.875 22.285-7.3633 45.625-11.035 69.094-10.875 50.789-1.4531 101.62 16.406 132.77 46.758 18.938 18.375 28.945 39.492 28.945 61.055 0 49.219-42.188 65.977-64.617 67.969zm-98.438-152.34c-20.305 0.16797-40.461 3.4961-59.742 9.8672-39.844 13.711-63.281 39.422-69.258 76.406 0.011719 0.17187 0.011719 0.34375 0 0.51562 0 0.14063-3.6094 18.984 6.2344 30.984 6.0938 7.4062 16.688 11.156 31.523 11.156h189.26c6-0.65625 42.773-6.2812 42.773-44.531 0-15.094-7.5469-30.469-21.82-44.25-27.023-26.086-71.555-41.461-116.27-40.148z"/>
  <path d="m714.84 222.66h-217.97c-6.4727 0-11.719-5.2461-11.719-11.719s5.2461-11.719 11.719-11.719h217.97c6.4727 0 11.719 5.2461 11.719 11.719s-5.2461 11.719-11.719 11.719z"/>
  <path d="m689.06 161.72h-103.12c-6.4727 0-11.719-5.2461-11.719-11.719s5.2461-11.719 11.719-11.719h103.12c6.4727 0 11.719 5.2461 11.719 11.719s-5.2461 11.719-11.719 11.719z"/>
  <path d="m539.06 161.72h-18.75c-6.4727 0-11.719-5.2461-11.719-11.719s5.2461-11.719 11.719-11.719h18.75c6.4727 0 11.719 5.2461 11.719 11.719s-5.2461 11.719-11.719 11.719z"/>
  <path d="m637.5 105.47h-44.531c-6.4727 0-11.719-5.2461-11.719-11.719s5.2461-11.719 11.719-11.719h44.531c6.4727 0 11.719 5.2461 11.719 11.719s-5.2461 11.719-11.719 11.719z"/>
  <path d="m148.43 968.98c-40.664 0-61.453-11.156-62.719-11.859-5.5469-3.1797-7.5234-10.215-4.4414-15.816 3.082-5.6016 10.086-7.6992 15.738-4.7148 0.375 0.1875 10.242 5.25 29.555 7.6875 18.188 2.3438 48.703 2.625 90.703-8.7188 6.2539-1.6836 12.684 2.0195 14.367 8.2734 1.6836 6.2539-2.0195 12.684-8.2734 14.367-24.395 6.8789-49.586 10.504-74.93 10.781z"/>
  <path d="m56.93 932.81c-1.5352 0-3.0586-0.30469-4.4766-0.89062-22.477-9.2344-28.5-35.297-28.734-36.422-0.67969-3.0352-0.12891-6.2148 1.5352-8.8398 1.6641-2.625 4.3008-4.4844 7.3359-5.1641 6.3164-1.418 12.586 2.5547 14.004 8.8711 0 0.35156 3.7969 15.352 14.789 19.898 5.1602 2.1367 8.0977 7.6172 7.0156 13.098-1.082 5.4805-5.8828 9.4375-11.469 9.4492z"/>
  <path d="m158.81 1017.3c-100.52 0-124.22-34.547-126.56-38.625 0 0-6.4922-11.602 3.0234-17.742 9.5156-6.1406 17.016 5.5781 16.875 5.3672-0.14063-0.21094 5.1797 7.2891 21.703 14.273 15.656 6.6328 44.836 14.273 94.758 13.172h0.14062c6.4727-0.070312 11.777 5.1172 11.848 11.59 0.070313 6.4727-5.1172 11.777-11.59 11.848-3.4688 0-6.8672 0.11719-10.195 0.11719z"/>
 </g>
</svg>
